<mxfile host="65bd71144e">
    <diagram id="qZTNTqjVIG-oNXIvDa-x" name="Страница 1">
        <mxGraphModel dx="1204" dy="576" grid="1" gridSize="10" guides="1" tooltips="1" connect="1" arrows="1" fold="1" page="1" pageScale="1" pageWidth="827" pageHeight="1169" math="0" shadow="0">
            <root>
                <mxCell id="0"/>
                <mxCell id="1" parent="0"/>
                <mxCell id="2" value="&lt;font style=&quot;font-size: 20px&quot;&gt;Start&lt;/font&gt;" style="rounded=1;whiteSpace=wrap;html=1;" parent="1" vertex="1">
                    <mxGeometry x="354" y="10" width="120" height="60" as="geometry"/>
                </mxCell>
                <mxCell id="4" value="Ввод Array[N]" style="shape=parallelogram;perimeter=parallelogramPerimeter;whiteSpace=wrap;html=1;fixedSize=1;fontSize=20;" parent="1" vertex="1">
                    <mxGeometry x="160" y="110" width="120" height="60" as="geometry"/>
                </mxCell>
                <mxCell id="5" value="" style="rounded=0;whiteSpace=wrap;html=1;" vertex="1" parent="1">
                    <mxGeometry x="150" y="190" width="120" height="60" as="geometry"/>
                </mxCell>
                <mxCell id="6" value="" style="rhombus;whiteSpace=wrap;html=1;" vertex="1" parent="1">
                    <mxGeometry x="187.5" y="310" width="166.5" height="80" as="geometry"/>
                </mxCell>
                <mxCell id="7" value="" style="shape=hexagon;perimeter=hexagonPerimeter2;whiteSpace=wrap;html=1;fixedSize=1;" vertex="1" parent="1">
                    <mxGeometry x="40" y="300" width="120" height="80" as="geometry"/>
                </mxCell>
                <mxCell id="8" value="" style="shape=parallelogram;perimeter=parallelogramPerimeter;whiteSpace=wrap;html=1;fixedSize=1;" vertex="1" parent="1">
                    <mxGeometry x="170" y="30" width="120" height="60" as="geometry"/>
                </mxCell>
            </root>
        </mxGraphModel>
    </diagram>
</mxfile>